<?xml version="1.0" encoding="utf-8"?>
<!-- Generator: Adobe Illustrator 29.4.0, SVG Export Plug-In . SVG Version: 9.03 Build 0)  -->
<svg version="1.1" id="Layer_1" xmlns="http://www.w3.org/2000/svg" xmlns:xlink="http://www.w3.org/1999/xlink" x="0px" y="0px"
	 viewBox="0 0 1200 1200" style="enable-background:new 0 0 1200 1200;" xml:space="preserve">
<style type="text/css">
	.st0{fill-rule:evenodd;clip-rule:evenodd;fill:url(#SVGID_1_);}
</style>
<linearGradient id="SVGID_1_" gradientUnits="userSpaceOnUse" x1="209.8864" y1="970.8475" x2="992.1237" y2="188.6201" gradientTransform="matrix(1 0 0 -1 0 1200)">
	<stop  offset="0" style="stop-color:#48CAE4"/>
	<stop  offset="1" style="stop-color:#023E8A"/>
</linearGradient>
<path class="st0" d="M693.03,259.71c17.54,0,31.67,14.63,30.85,32.35c-0.75,16.2-14.45,29.32-30.67,29.42
	c-16.31,0.09-29.71-12.45-30.97-28.41c-59.14-21.15-119.92-37.2-181.64-47.99c-61.4-10.73-123.57-16.21-185.83-16.27
	c-4.92,10.89-15.98,18.42-28.76,18.18c-16.07-0.31-29.52-13.38-30.25-29.43c-0.81-17.72,13.31-32.34,30.85-32.34
	c12.26,0,22.86,7.15,27.84,17.5c64.05,0.03,127.84,5.62,190.64,16.59c63.12,11.03,125.43,27.52,186.24,49.3
	c5.58-5.5,13.24-8.9,21.69-8.9 M627.04,442.39c17.54,0,31.66,14.62,30.85,32.34c-0.74,16.21-14.44,29.33-30.66,29.43
	c-16.32,0.1-29.73-12.47-30.98-28.45c-44.49-15.96-89.98-29.03-136.19-39.16c-46.25-10.13-93.07-17.28-140.17-21.38
	c-5.23,9.3-15.13,15.63-26.53,15.78c-16.45,0.22-30.52-13-31.27-29.43c-0.81-17.72,13.31-32.34,30.85-32.34
	c13.2,0,24.46,8.28,28.88,19.93c48.44,4.2,96.46,11.51,143.75,21.87c47.28,10.36,93.97,23.8,139.79,40.27
	c5.57-5.49,13.22-8.88,21.66-8.88L627.04,442.39z M557.36,622.35c17.54,0,31.67,14.62,30.85,32.34
	c-0.75,16.22-14.47,29.35-30.7,29.43c-16.35,0.08-29.77-12.55-30.95-28.58c-46.78-17.11-93.88-31.11-141.43-41.89
	c-47.4-10.75-95.32-18.32-143.88-22.61c-5.23,9.3-15.13,15.61-26.51,15.76c-16.45,0.22-30.51-12.99-31.27-29.42
	c-0.82-17.72,13.31-32.35,30.85-32.35c13.21,0,24.48,8.3,28.9,19.96c49.79,4.39,98.97,12.16,147.64,23.2
	c48.86,11.08,97.14,25.43,144.95,42.92C541.37,625.69,548.98,622.35,557.36,622.35L557.36,622.35z M633.47,910.76
	c17.54,0,31.67,14.63,30.85,32.36c-0.73,15.73-13.67,28.66-29.4,29.38c-17.72,0.81-32.33-13.32-32.33-30.85
	c0-2.92,0.4-5.73,1.16-8.39c-54.63-44.74-117.28-78.95-183.72-101.25c-66.31-22.25-136.36-32.61-205.94-29.66
	c-4.54,11.76-16.07,20.05-29.49,19.77c-16.02-0.34-29.42-13.36-30.18-29.37c-0.85-17.74,13.29-32.39,30.85-32.39
	c11.65,0,21.79,6.45,27.05,15.97c73.02-3.18,146.5,7.62,216,30.94c69.57,23.34,135.19,59.26,192.45,106.23
	c3.88-1.75,8.19-2.73,12.72-2.73L633.47,910.76z M820.81,332.65c20.2-2.55,37.19,14.44,34.65,34.64
	c-1.73,13.77-12.85,24.88-26.61,26.62c-20.21,2.55-37.2-14.45-34.65-34.65c1.74-13.76,12.85-24.88,26.62-26.61L820.81,332.65z
	 M793.71,546.95c14.64,9.61,28.7,19.8,42.25,30.48c13.47,10.61,26.53,21.77,39.25,33.39c4.31-1.71,9.09-2.47,14.1-2.05
	c15.01,1.29,27.13,13.69,28.1,28.72c1.25,19.34-15.32,35.17-34.89,32.67c-13.84-1.77-24.96-13.02-26.6-26.88
	c-0.56-4.75-0.04-9.31,1.35-13.48c-12.1-11.02-24.56-21.65-37.46-31.81c-12.92-10.18-26.2-19.84-39.9-28.87
	c-5.77,3.77-12.88,5.67-20.47,4.81c-13.92-1.58-25.25-12.72-27.02-26.62c-2.49-19.52,13.27-36.05,32.55-34.89
	c14.98,0.91,27.45,12.88,28.82,27.83c0.21,2.28,0.18,4.53-0.08,6.71L793.71,546.95z M731.13,744.24
	c15.01,13.06,29.43,26.7,43.33,40.85c13.87,14.12,27.2,28.73,40.06,43.78c3.27-0.86,6.76-1.18,10.36-0.9
	c15.02,1.19,27.22,13.53,28.27,28.56c1.35,19.38-15.17,35.28-34.73,32.86c-13.86-1.71-25.05-12.93-26.73-26.8
	c-0.74-6.14,0.32-11.98,2.73-17.06c-12.41-14.52-25.26-28.58-38.58-42.14c-13.3-13.55-27.11-26.61-41.48-39.14
	c-5.08,2.38-10.91,3.42-17.03,2.66c-13.81-1.71-24.97-12.85-26.69-26.66c-2.52-20.15,14.4-37.1,34.55-34.62
	c13.54,1.66,24.59,12.41,26.62,25.9c0.67,4.44,0.38,8.72-0.68,12.7V744.24z M352.08,913.87c27.63,7.07,54.78,16.7,81.24,27.97
	c26.21,11.16,51.73,23.93,76.34,37.4c5.28-3.79,11.79-5.95,18.82-5.77c15.97,0.42,29.28,13.46,30.01,29.42
	c0.81,17.72-13.31,32.34-30.85,32.34s-30.89-13.83-30.89-30.89c0-0.79,0.03-1.57,0.09-2.35c-23.84-13.05-48.51-25.38-73.75-36.13
	c-25.07-10.67-50.72-19.79-76.71-26.5c-5.71,7.4-14.7,12.14-24.79,12.04c-16.18-0.16-29.8-13.28-30.54-29.44
	c-0.8-17.72,13.32-32.33,30.85-32.33c14.77,0,27.12,10.38,30.16,24.23L352.08,913.87z M487.16,112.94
	c27.17,3.63,53.46,7.89,78.78,12.81c128.48,24.96,232.05,66.95,300.7,130.27c69.9,64.46,103.56,150.28,90.66,261.74
	c-1.07,9.21-2.46,18.62-4.18,28.22c60.71,57.1,101.61,99.25,113.81,132.25c13.27,35.9-1.58,60.18-52.38,76.99
	c9.47,10.61,15.52,21.26,18.12,30.85c2.27,8.4,2.09,16.33-0.56,23.28c-2.86,7.49-8.34,13.43-16.46,17.23
	c-2.96,1.39-6.29,2.46-9.99,3.18c6.31,9.07,9.52,17.86,9.06,27.06c-0.77,15.32-11.45,28.93-34.59,43.23
	c28.65,98.04,4.7,136.36-43.12,151.43c-27.78,8.76-63.16,8.2-100.52,7.62h-0.05l-6.27-0.1c-0.63,0.04-1.26,0.02-1.89-0.03
	c-42.71-0.61-87.37-0.35-121.75,15.06c0.3,2.64,0.27,5.37-0.16,8.21c-2.04,13.36-12.84,24.09-26.24,25.89
	c-20.3,2.73-37.43-14.27-34.93-34.53c1.72-13.94,13.05-25.15,27-26.75c7.59-0.87,14.71,1.02,20.49,4.79
	c34.23-16.42,75.45-18.96,116.15-18.92c-42.4-87.11-106.8-162.46-184.75-218.3c-74.24-53.19-160.7-88.64-252.04-99.65
	c-5.33,9.09-15.17,15.21-26.46,15.29c-16.37,0.1-30.3-13.07-31.05-29.42c-0.82-17.72,13.31-32.35,30.85-32.35
	c13.4,0,24.81,8.54,29.08,20.46c96.14,11.46,186.99,48.61,264.86,104.4c84.88,60.81,154.4,143.83,198.57,239.89
	c34.74,0.54,67.58,0.97,91.31-6.51c34.38-10.84,49.97-42.44,23.13-128C907.8,804.37,823.39,717.6,726.23,650.57
	c-96.13-66.32-204.38-113.1-298.61-128.47c-5.53,8.66-15.26,14.38-26.32,14.28c-16.19-0.14-29.84-13.25-30.58-29.43
	c-0.81-17.72,13.31-32.34,30.85-32.34c13.83,0,25.53,9.08,29.47,21.61c98.23,15.91,210.62,64.3,310.02,132.87
	c96.54,66.61,181.15,152.49,229.03,246.45c12.47-7.99,18.24-14.32,18.53-19.96c0.37-7.36-8.03-17.15-22.7-30.41
	c-3.58-3.07-5.37-7.98-4.22-12.89c1.64-7.03,8.66-11.4,15.7-9.76c13,3.05,21.97,2.87,27.18,0.43c1.6-0.75,2.63-1.75,3.07-2.91
	c0.65-1.72,0.56-4.18-0.26-7.22c-2.58-9.53-11.32-21.4-26.22-33.27c-2.44-1.76-4.29-4.36-5.05-7.51c-1.69-7,2.61-14.05,9.61-15.75
	c48.67-11.92,64.78-27.01,56.63-49.08c-10.66-28.84-51.35-69.91-111.99-126.76l-0.1-0.09c-71.25-55.42-148.89-101.7-231.05-137.99
	c-73.89-32.63-151.39-57.14-231.14-72.91c-5.77,8.08-15.33,13.26-26.09,12.94c-15.92-0.47-29.14-13.44-29.91-29.35
	c-0.85-17.75,13.29-32.41,30.85-32.41c14.37,0,26.45,9.82,29.9,23.11c81.76,16.15,161.2,41.25,236.91,74.69
	c77.66,34.3,151.47,77.41,219.94,128.67c0.6-4.14,1.14-8.25,1.62-12.33c11.84-102.36-18.75-180.88-82.38-239.56
	C784.05,215.4,684.82,175.45,561,151.4c-24.74-4.81-50.47-8.98-77.11-12.54c-5.5,8.74-15.25,14.53-26.36,14.46
	c-16.22-0.1-29.91-13.24-30.65-29.44c-0.81-17.71,13.32-32.33,30.85-32.33c13.74,0,25.38,8.97,29.39,21.38L487.16,112.94z"/>
</svg>
